# xmcd
#
# Track frame offsets: 
#        150
#        15405
#        36254
#        52052
#        68644
#        81461
#        100164
#        115712
#        128160
#        147100
#        170589
#        182647
#        192740
#        206936
#        225493
#        241493
#        253070
#        267740
#        278801
#        296424
#        313657
#
# Disc length: 4399 seconds
#
# Revision: 0
# Processed by: cddbd v1.5.2PL0 Copyright (c) Steve Scherf et al.
# Submitted via: ExactAudioCopy v0.95b3
#
DISCID=41112d15
DTITLE=The Pogues  - Just Look Them Straight In The Eye And Say...Pogu
DTITLE=e Mahone!! [CD 5)
DYEAR=1900
DGENRE=
TTITLE0=Sexy Bongo - Johnny Was
TTITLE1=Miss Otis Regrets - Just One Of Those Things
TTITLE2=Kirsty MacColl - All The Tears That I Cried
TTITLE3=Kirsty MacColl - The One And Only
TTITLE4=Joe Strummer and the Astro-Physicians - Afro-Cuban Be-Bop
TTITLE5=Turkish Song Of The Damned
TTITLE6=London Calling
TTITLE7=I Fought The Law
TTITLE8=The Girl From The Wadi-Hammamat
TTITLE9=Moving To Moldova
TTITLE10=Call My Name
TTITLE11=The Sun And The Moon
TTITLE12=Living In A World Without Her
TTITLE13=Who Said Romance Is Dead
TTITLE14=Sound Of The City Night
TTITLE15=Four O'Clock In The Morning
TTITLE16=The Star Of The County Down
TTITLE17=White City
TTITLE18=Medley
TTITLE19=The Parting Glass - Lord Santry's Fairest Daughter
TTITLE20=Goodnight Irene
EXTD=
EXTT0=
EXTT1=
EXTT2=
EXTT3=
EXTT4=
EXTT5=
EXTT6=
EXTT7=
EXTT8=
EXTT9=
EXTT10=
EXTT11=
EXTT12=
EXTT13=
EXTT14=
EXTT15=
EXTT16=
EXTT17=
EXTT18=
EXTT19=
EXTT20=
PLAYORDER=
